<?xml version="1.0" standalone="no"?>
<!DOCTYPE svg PUBLIC "-//W3C//DTD SVG 20010904//EN" "http://www.w3.org/TR/2001/REC-SVG-20010904/DTD/svg10.dtd">
<svg xmlns="http://www.w3.org/2000/svg" version="1.0" width="657.000000pt" height="656.000000pt" viewBox="0 0 657.000000 656.000000" preserveAspectRatio="xMidYMid meet">
<metadata>
Created by potrace 1.16, written by Peter Selinger 2001-2019
<meta name="Producer" content="Online-Convert"/></metadata>
<g transform="translate(0.000000,656.000000) scale(0.100000,-0.100000)" fill="#000000" stroke="none">
<path d="M3335 6234 c-11 -3 -292 -80 -625 -171 -333 -91 -652 -178 -710 -194 -504 -135 -872 -240 -905 -257 -46 -23 -125 -103 -150 -151 -27 -54 -43 -155 -56 -361 -14 -229 -7 -655 15 -870 96 -944 412 -1799 948 -2565 308 -441 733 -881 1166 -1208 139 -104 270 -123 405 -57 70 34 237 150 415 288 1106 856 1842 2131 2031 3517 34 248 41 347 47 650 7 359 -2 487 -40 570 -57 127 -120 166 -376 238 -107 30 -307 87 -445 126 -137 38 -450 126 -695 195 -245 68 -544 152 -665 186 -206 59 -310 77 -360 64z m412 -440 c186 -52 505 -142 708 -200 204 -57 393 -111 420 -119 52 -16 306 -87 535 -151 74 -21 141 -42 149 -48 19 -15 10 -688 -13 -876 -113 -940 -437 -1753 -987 -2485 -327 -434 -759 -844 -1206 -1144 l-93 -62 -122 97 c-1027 815 -1678 1950 -1862 3245 -35 246 -46 417 -46 715 0 216 19 526 33 540 1 2 95 28 207 59 113 30 255 69 315 86 479 132 1602 438 1612 438 7 1 165 -42 350 -95z"/>
<path d="M3327 5096 c-59 -22 -103 -62 -133 -121 -44 -92 -25 -195 48 -264 18 -17 45 -36 60 -42 l28 -11 0 -368 0 -368 62 -21 c34 -12 68 -21 75 -21 10 0 13 76 13 390 l0 390 23 9 c104 40 159 195 108 307 -47 104 -176 158 -284 120z"/>
<path d="M2600 4953 c-68 -12 -298 -83 -426 -131 -136 -51 -456 -112 -589 -112 -23 0 -46 -5 -53 -12 -32 -32 6 -179 65 -247 54 -64 99 -82 222 -90 122 -9 186 -32 266 -96 125 -101 146 -108 335 -110 171 -1 203 -10 391 -111 25 -13 73 -29 106 -35 75 -13 152 4 261 57 l72 35 0 223 0 224 -26 16 c-46 31 -94 90 -135 166 -51 95 -98 144 -174 180 -94 44 -215 61 -315 43z"/>
<path d="M4020 4954 c-146 -28 -247 -100 -306 -216 -40 -79 -82 -134 -126 -163 l-38 -26 2 -226 3 -227 59 -29 c32 -16 94 -38 139 -49 69 -17 88 -19 136 -9 31 6 72 19 91 29 217 112 269 127 412 119 146 -9 210 11 308 97 25 21 74 53 110 69 54 26 82 32 170 38 116 8 164 24 212 76 58 60 108 222 79 256 -7 9 -44 16 -103 21 -208 14 -401 58 -663 149 -71 25 -166 55 -210 67 -78 21 -224 34 -275 24z"/>
<path d="M3003 3950 c-34 -8 -70 -28 -95 -54 -9 -8 -39 -16 -69 -18 l-54 -4 43 -8 c24 -5 51 -16 60 -26 42 -42 201 -89 344 -100 106 -9 277 -59 309 -91 46 -46 15 -72 -168 -138 -87 -32 -177 -70 -200 -84 -55 -35 -77 -75 -62 -114 25 -66 80 -101 259 -163 156 -54 188 -72 196 -107 11 -44 -22 -70 -176 -139 -189 -84 -224 -117 -199 -191 15 -45 57 -75 191 -134 127 -55 158 -75 176 -111 25 -52 -10 -96 -122 -154 -152 -78 -187 -110 -185 -167 1 -18 2 -17 9 7 14 47 48 74 173 138 134 69 167 101 167 157 0 53 -34 85 -150 138 -176 81 -200 100 -200 150 0 22 42 73 61 73 5 0 76 30 159 66 168 74 200 100 200 163 0 59 -53 100 -191 149 -123 44 -218 88 -225 106 -11 29 6 65 39 82 17 10 97 39 176 66 79 27 160 57 180 68 134 72 133 161 -3 229 -54 27 -79 36 -216 78 -84 25 -131 46 -175 77 -33 24 -75 48 -94 54 -38 13 -109 14 -158 2z"/>
<path d="M3330 2431 c0 -50 3 -91 8 -91 4 0 36 17 72 38 87 51 90 71 16 105 -103 47 -96 51 -96 -52z"/>
<path d="M3400 2199 c-68 -37 -72 -41 -64 -62 6 -17 113 -87 133 -87 7 0 11 30 11 90 0 65 -3 90 -12 90 -7 0 -38 -14 -68 -31z"/>
<path d="M3330 1753 c0 -217 0 -220 23 -241 41 -39 96 -23 117 32 5 15 10 96 10 180 0 173 5 161 -92 216 l-58 32 0 -219z"/>
</g>
</svg>
